<svg xmlns="http://www.w3.org/2000/svg" width="115.908" height="34" viewBox="0 0 115.908 34">
    <g id="prefix__logo-igraal" transform="translate(-163.001 -1225)">
        <path id="prefix__Color_Overlay" d="M0 17C0 10.133 10.026 0 16.817 0s16.815 10.136 16.814 17S23.6 34 16.813 34 0 23.865 0 17zM13.82 6.953l-7.064 7.463a4.064 4.064 0 0 0 .1 5.7L14.17 27.2a3.959 3.959 0 0 0 5.641-.15l7.066-7.463a4.067 4.067 0 0 0-.1-5.7l-4.484-4.331-4.217 4.262c.152.138 2.189 2.1 2.189 2.1A1.408 1.408 0 0 1 20.3 17.9l-2.446 2.584a1.371 1.371 0 0 1-1.954.051l-2.533-2.451a1.407 1.407 0 0 1-.035-1.974l7.653-7.831L19.462 6.8a3.918 3.918 0 0 0-2.735-1.1 4 4 0 0 0-2.907 1.253zm4.255 6.866l-.01-.01zM91.909 18.6a7.68 7.68 0 1 1 15.338 0v7.712h-3.411V25.02a6.515 6.515 0 0 1-4.3 1.648 7.776 7.776 0 0 1-7.627-8.068zm3.495 0a4.422 4.422 0 0 0 4.188 4.7 4.475 4.475 0 0 0 4.188-4.7c0-2.58-1.918-4.76-4.189-4.76A4.507 4.507 0 0 0 95.4 18.6zm-20.024 0a7.68 7.68 0 1 1 15.338 0v7.712h-3.413V25.02a6.512 6.512 0 0 1-4.3 1.648 7.776 7.776 0 0 1-7.626-8.068zm3.495 0a4.422 4.422 0 0 0 4.187 4.7 4.475 4.475 0 0 0 4.189-4.7c0-2.58-1.918-4.76-4.189-4.76a4.507 4.507 0 0 0-4.188 4.76zM45.8 16.018c0-5.841 4.5-10.594 10.04-10.594a9.748 9.748 0 0 1 9.35 6.8l.273.784H61.8l-.157-.339a6.293 6.293 0 0 0-5.806-3.79c-3.625 0-6.573 3.2-6.573 7.144 0 3.955 2.948 7.172 6.573 7.172a5.98 5.98 0 0 0 6.188-5.095H55.4v-3.45h10.263v1.59c0 6.221-3.947 10.4-9.821 10.4-5.542 0-10.042-4.765-10.042-10.622zm63.35 4.49v-16h3.467v15.917c0 1.725.746 2.495 2.419 2.495.086 0 .173 0 .261-.006l.609-.029v3.358l-.515.06a7.518 7.518 0 0 1-.874.052c-3.258.001-5.366-2.294-5.366-5.847zm-41.8 5.8v-9.07c0-4.015 2.572-6.714 6.4-6.714a8.5 8.5 0 0 1 1 .06l.513.062V14l-.635-.058c-.2-.018-.388-.028-.574-.028-2.114 0-3.232 1.13-3.232 3.267v9.125zm-26.864 0V9.68h3.495v16.628zm-.071-20.295a1.816 1.816 0 1 1 1.816 1.836 1.826 1.826 0 0 1-1.816-1.836z" data-name="Color Overlay" transform="translate(163.001 1225)" style="fill:#fc4a20"/>
    </g>
</svg>
