<svg xmlns="http://www.w3.org/2000/svg" width="170.15" height="49.911" viewBox="0 0 170.15 49.911">
    <g id="prefix__Logo_iGraal" data-name="Logo iGraal" transform="translate(-163.001 -1233)">
        <path id="prefix__Color_Overlay" fill="#fd5a23" d="M0 24.955C0 14.876 14.717 0 24.688 0S49.371 14.879 49.37 24.958 34.651 49.911 24.681 49.911 0 35.033 0 24.955zm20.287-14.748L9.917 21.162a5.966 5.966 0 0 0 .144 8.37L20.8 39.926a5.812 5.812 0 0 0 8.281-.22L39.454 28.75a5.97 5.97 0 0 0-.145-8.372l-6.584-6.349-6.191 6.256c.223.2 3.214 3.086 3.214 3.086a2.067 2.067 0 0 1 .05 2.9l-3.591 3.793a2.013 2.013 0 0 1-2.868.075l-3.718-3.6a2.065 2.065 0 0 1-.051-2.9L30.8 12.147l-2.231-2.163a5.751 5.751 0 0 0-4.014-1.624 5.867 5.867 0 0 0-4.268 1.847zm6.246 10.079l-.015-.014zM134.92 27.3c0-6.667 4.954-11.889 11.278-11.889 6.3 0 11.237 5.223 11.237 11.889v11.319h-5.008v-1.89a9.564 9.564 0 0 1-6.31 2.419c-6.278 0-11.197-5.205-11.197-11.848zm5.13 0c0 3.874 2.7 6.908 6.148 6.908 3.39 0 6.149-3.1 6.149-6.908 0-3.788-2.816-6.987-6.149-6.987-3.39-.002-6.148 3.133-6.148 6.987zm-29.395 0c0-6.667 4.953-11.889 11.278-11.889 6.3 0 11.237 5.223 11.237 11.889v11.319h-5.009v-1.89a9.56 9.56 0 0 1-6.309 2.419c-6.278 0-11.197-5.205-11.197-11.848zm5.13 0c0 3.874 2.7 6.908 6.148 6.908 3.39 0 6.149-3.1 6.149-6.908 0-3.788-2.816-6.987-6.149-6.987-3.389-.002-6.148 3.133-6.148 6.987zm-48.55-3.783c0-8.575 6.611-15.551 14.739-15.551A14.31 14.31 0 0 1 95.7 17.938l.4 1.152h-5.373l-.231-.5a9.238 9.238 0 0 0-8.523-5.564c-5.321 0-9.649 4.7-9.649 10.487 0 5.806 4.328 10.529 9.649 10.529a8.778 8.778 0 0 0 9.078-7.467H81.32v-5.063h15.071v2.328c0 9.132-5.794 15.267-14.417 15.267-8.128 0-14.739-6.994-14.739-15.592zm93 6.591V6.621h5.09v23.363c0 2.533 1.094 3.662 3.551 3.662.126 0 .254 0 .384-.009l.894-.042v4.93l-.755.088a11.037 11.037 0 0 1-1.283.077c-4.791-.001-7.885-3.37-7.885-8.585zm-61.371 8.511V25.3c0-5.895 3.776-9.856 9.394-9.856a12.484 12.484 0 0 1 1.462.088l.753.091v4.927l-.932-.085c-.289-.027-.57-.041-.842-.041-3.1 0-4.745 1.659-4.745 4.8v13.4zm-39.436 0V14.21h5.13v24.409zm-.1-29.792a2.666 2.666 0 1 1 2.666 2.7 2.68 2.68 0 0 1-2.666-2.7z" data-name="Color Overlay" transform="translate(163.001 1233)"/>
    </g>
</svg>
